<svg xmlns="http://www.w3.org/2000/svg" viewBox="0 0 64 48" fill="none" aria-hidden="true">
  <!-- DKG mark: pillars on double wave (After) -->
  <g fill="#B8954A">
    <rect x="8" y="10" width="6.5" height="22" rx="0.6"/>
    <rect x="17.5" y="4" width="6.5" height="28" rx="0.6"/>
    <rect x="27" y="14" width="6.5" height="18" rx="0.6"/>
    <rect x="36.5" y="8" width="6.5" height="24" rx="0.6"/>
    <rect x="46" y="16" width="6.5" height="16" rx="0.6"/>
    <path d="M4 36.5c4.5-3.2 9.5-3.2 14 0s9.5 3.2 14 0 9.5-3.2 14 0 9.5 3.2 14 0v3.2c-4.5 3.2-9.5 3.2-14 0s-9.5-3.2-14 0-9.5 3.2-14 0-9.5-3.2-14 0V36.5z"/>
    <path d="M4 42.2c4.5-3.2 9.5-3.2 14 0s9.5 3.2 14 0 9.5-3.2 14 0 9.5 3.2 14 0v2.6c-4.5 3.2-9.5 3.2-14 0s-9.5-3.2-14 0-9.5 3.2-14 0-9.5-3.2-14 0v-2.6z"/>
  </g>
</svg>
